HIERARCHY
ROOT Hips
{
	OFFSET 0.000000 71.427986 0.000000
	CHANNELS 6 Xposition Yposition Zposition Xrotation Yrotation Zrotation
	JOINT Pelvis
	{
		OFFSET 0.000000 0.000000 0.000000
		CHANNELS 3 Xrotation Yrotation Zrotation
		JOINT LeftUpLeg
		{
			OFFSET 6.797100 -2.508499 -1.318700
			CHANNELS 3 Xrotation Yrotation Zrotation
			JOINT LeftLeg
			{
				OFFSET 0.069008 -29.241863 0.690200
				CHANNELS 3 Xrotation Yrotation Zrotation
				JOINT LeftFoot
				{
					OFFSET -0.069008 -29.568123 -0.266800
					CHANNELS 3 Xrotation Yrotation Zrotation
					JOINT LeftToeBase
					{
						OFFSET 3.145500 -8.631000 16.059900
						CHANNELS 3 Xrotation Yrotation Zrotation
						End Site
						{
							OFFSET 0.000000 18.501587 0.000000
						}
					}
				}
			}
			JOINT Left_ShortSleeve
			{
				OFFSET 0.265923 -10.480953 1.153800
				CHANNELS 3 Xrotation Yrotation Zrotation
				End Site
				{
					OFFSET 1.725763 19.823879 0.000000
				}
			}
		}
		JOINT RightUpLeg
		{
			OFFSET -6.797100 -2.508499 -1.318700
			CHANNELS 3 Xrotation Yrotation Zrotation
			JOINT RightLeg
			{
				OFFSET -0.082453 -29.241932 0.688000
				CHANNELS 3 Xrotation Yrotation Zrotation
				JOINT RightFoot
				{
					OFFSET 0.082453 -29.568058 -0.264600
					CHANNELS 3 Xrotation Yrotation Zrotation
					JOINT RightToeBase
					{
						OFFSET -3.115300 -8.682800 16.113400
						CHANNELS 3 Xrotation Yrotation Zrotation
						End Site
						{
							OFFSET 0.000000 18.567114 0.000000
						}
					}
				}
			}
			JOINT Right_ShortSleeve
			{
				OFFSET -0.265923 -10.480953 1.153800
				CHANNELS 3 Xrotation Yrotation Zrotation
				End Site
				{
					OFFSET -1.725766 19.823910 0.000000
				}
			}
		}
	}
	JOINT Spine
	{
		OFFSET 0.000000 13.368103 0.470500
		CHANNELS 3 Xrotation Yrotation Zrotation
		JOINT Spine1
		{
			OFFSET 0.147000 13.837402 0.538800
			CHANNELS 3 Xrotation Yrotation Zrotation
			JOINT Spine2
			{
				OFFSET 0.168000 16.242897 -1.435500
				CHANNELS 3 Xrotation Yrotation Zrotation
				JOINT Neck
				{
					OFFSET 0.217200 18.631500 -1.679100
					CHANNELS 3 Xrotation Yrotation Zrotation
					JOINT Head
					{
						OFFSET 0.000000 6.599396 1.385900
						CHANNELS 3 Xrotation Yrotation Zrotation
						JOINT Hat
						{
							OFFSET -0.532200 27.220596 -10.096100
							CHANNELS 3 Xrotation Yrotation Zrotation
							End Site
							{
								OFFSET 0.000000 22.029861 0.000000
							}
						}
						JOINT HairD
						{
							OFFSET -10.777400 17.437393 -1.325900
							CHANNELS 3 Xrotation Yrotation Zrotation
							JOINT HairD1
							{
								OFFSET -3.290299 -11.051193 1.062200
								CHANNELS 3 Xrotation Yrotation Zrotation
								End Site
								{
									OFFSET 0.000000 11.579437 0.000000
								}
							}
						}
						JOINT HairB
						{
							OFFSET -10.777400 17.437393 1.467900
							CHANNELS 3 Xrotation Yrotation Zrotation
							JOINT HairB1
							{
								OFFSET -1.561200 -12.956299 3.590200
								CHANNELS 3 Xrotation Yrotation Zrotation
								End Site
								{
									OFFSET 0.000000 13.534866 0.000000
								}
							}
						}
						JOINT HairA
						{
							OFFSET 9.713100 17.437393 1.467900
							CHANNELS 3 Xrotation Yrotation Zrotation
							JOINT HairA1
							{
								OFFSET 1.561200 -12.956299 3.590200
								CHANNELS 3 Xrotation Yrotation Zrotation
								End Site
								{
									OFFSET 0.000000 13.534866 0.000000
								}
							}
						}
						JOINT HairC
						{
							OFFSET 9.713100 17.437393 -1.325900
							CHANNELS 3 Xrotation Yrotation Zrotation
							JOINT HairC1
							{
								OFFSET 3.290300 -11.051193 1.062200
								CHANNELS 3 Xrotation Yrotation Zrotation
								End Site
								{
									OFFSET 0.000000 11.579437 0.000000
								}
							}
						}
					}
				}
				JOINT LeftShoulder
				{
					OFFSET 5.101800 15.108002 -2.763700
					CHANNELS 3 Xrotation Yrotation Zrotation
					JOINT LeftArm
					{
						OFFSET 9.825497 2.506317 -1.597400
						CHANNELS 3 Xrotation Yrotation Zrotation
						JOINT LeftForeArm
						{
							OFFSET 21.966244 0.000000 0.000000
							CHANNELS 3 Xrotation Yrotation Zrotation
							JOINT LeftHand
							{
								OFFSET 33.879036 0.000000 0.000000
								CHANNELS 3 Xrotation Yrotation Zrotation
								JOINT LeftHandThumb1
								{
									OFFSET 6.715286 -2.359680 3.363841
									CHANNELS 3 Xrotation Yrotation Zrotation
									JOINT LeftHandThumb2
									{
										OFFSET 2.507072 -1.447464 1.447461
										CHANNELS 3 Xrotation Yrotation Zrotation
										JOINT LeftHandThumb3
										{
											OFFSET 2.898338 -1.673355 1.673357
											CHANNELS 3 Xrotation Yrotation Zrotation
											End Site
											{
												OFFSET -0.295959 3.727692 -0.131651
											}
										}
									}
								}
								JOINT LeftHandIndex1
								{
									OFFSET 14.190811 -0.254547 3.840278
									CHANNELS 3 Xrotation Yrotation Zrotation
									JOINT LeftHandIndex2
									{
										OFFSET 3.551727 0.000000 -0.000000
										CHANNELS 3 Xrotation Yrotation Zrotation
										JOINT LeftHandIndex3
										{
											OFFSET 2.894196 0.000000 0.000000
											CHANNELS 3 Xrotation Yrotation Zrotation
											End Site
											{
												OFFSET -1.000603 2.690872 0.366626
											}
										}
									}
								}
								JOINT LeftHandMiddle1
								{
									OFFSET 13.776489 0.000000 0.000000
									CHANNELS 3 Xrotation Yrotation Zrotation
									JOINT LeftHandMiddle2
									{
										OFFSET 3.438232 0.000000 0.000000
										CHANNELS 3 Xrotation Yrotation Zrotation
										JOINT LeftHandMiddle3
										{
											OFFSET 3.691551 0.000000 0.000000
											CHANNELS 3 Xrotation Yrotation Zrotation
											End Site
											{
												OFFSET -1.082298 3.499527 0.457670
											}
										}
									}
								}
								JOINT LeftHandRing1
								{
									OFFSET 13.966164 -0.268127 -3.067488
									CHANNELS 3 Xrotation Yrotation Zrotation
									JOINT LeftHandRing2
									{
										OFFSET 3.162567 0.000000 0.000000
										CHANNELS 3 Xrotation Yrotation Zrotation
										JOINT LeftHandRing3
										{
											OFFSET 3.324348 0.000000 0.000000
											CHANNELS 3 Xrotation Yrotation Zrotation
											End Site
											{
												OFFSET -0.861900 3.184998 0.405154
											}
										}
									}
								}
								JOINT LeftHandPinky1
								{
									OFFSET 13.131393 -0.168503 -5.746925
									CHANNELS 3 Xrotation Yrotation Zrotation
									JOINT LeftHandPinky2
									{
										OFFSET 2.849182 0.000000 0.000000
										CHANNELS 3 Xrotation Yrotation Zrotation
										JOINT LeftHandPinky3
										{
											OFFSET 2.805038 0.000000 0.000000
											CHANNELS 3 Xrotation Yrotation Zrotation
											End Site
											{
												OFFSET -0.882500 2.642609 0.325652
											}
										}
									}
								}
							}
							JOINT Left_Sleeve
							{
								OFFSET 6.592125 -0.646545 0.805568
								CHANNELS 3 Xrotation Yrotation Zrotation
								End Site
								{
									OFFSET -0.000179 20.275787 -0.000000
								}
							}
						}
					}
				}
				JOINT RightShoulder
				{
					OFFSET -5.731700 15.108002 -2.763700
					CHANNELS 3 Xrotation Yrotation Zrotation
					JOINT RightArm
					{
						OFFSET -9.825497 2.506317 -1.597400
						CHANNELS 3 Xrotation Yrotation Zrotation
						JOINT RightForeArm
						{
							OFFSET -21.966242 0.000000 0.000000
							CHANNELS 3 Xrotation Yrotation Zrotation
							JOINT RightHand
							{
								OFFSET -33.879032 0.000000 0.000000
								CHANNELS 3 Xrotation Yrotation Zrotation
								JOINT RightHandThumb1
								{
									OFFSET -6.715286 -2.359680 3.363841
									CHANNELS 3 Xrotation Yrotation Zrotation
									JOINT RightHandThumb2
									{
										OFFSET -2.507072 -1.447464 1.447461
										CHANNELS 3 Xrotation Yrotation Zrotation
										JOINT RightHandThumb3
										{
											OFFSET -2.898338 -1.673355 1.673357
											CHANNELS 3 Xrotation Yrotation Zrotation
											End Site
											{
												OFFSET 0.295959 3.727692 -0.131651
											}
										}
									}
								}
								JOINT RightHandIndex1
								{
									OFFSET -14.190811 -0.254547 3.840278
									CHANNELS 3 Xrotation Yrotation Zrotation
									JOINT RightHandIndex2
									{
										OFFSET -3.551727 0.000000 -0.000000
										CHANNELS 3 Xrotation Yrotation Zrotation
										JOINT RightHandIndex3
										{
											OFFSET -2.894196 0.000000 0.000000
											CHANNELS 3 Xrotation Yrotation Zrotation
											End Site
											{
												OFFSET 1.000603 2.690872 0.366626
											}
										}
									}
								}
								JOINT RightHandMiddle1
								{
									OFFSET -13.776489 0.000000 0.000000
									CHANNELS 3 Xrotation Yrotation Zrotation
									JOINT RightHandMiddle2
									{
										OFFSET -3.438232 0.000000 0.000000
										CHANNELS 3 Xrotation Yrotation Zrotation
										JOINT RightHandMiddle3
										{
											OFFSET -3.691551 0.000000 0.000000
											CHANNELS 3 Xrotation Yrotation Zrotation
											End Site
											{
												OFFSET 1.082298 3.499527 0.457670
											}
										}
									}
								}
								JOINT RightHandRing1
								{
									OFFSET -13.966164 -0.268127 -3.067488
									CHANNELS 3 Xrotation Yrotation Zrotation
									JOINT RightHandRing2
									{
										OFFSET -3.162567 0.000000 0.000000
										CHANNELS 3 Xrotation Yrotation Zrotation
										JOINT RightHandRing3
										{
											OFFSET -3.324348 0.000000 0.000000
											CHANNELS 3 Xrotation Yrotation Zrotation
											End Site
											{
												OFFSET 0.861900 3.184998 0.405154
											}
										}
									}
								}
								JOINT RightHandPinky1
								{
									OFFSET -13.131393 -0.168503 -5.746925
									CHANNELS 3 Xrotation Yrotation Zrotation
									JOINT RightHandPinky2
									{
										OFFSET -2.849182 0.000000 0.000000
										CHANNELS 3 Xrotation Yrotation Zrotation
										JOINT RightHandPinky3
										{
											OFFSET -2.805038 0.000000 0.000000
											CHANNELS 3 Xrotation Yrotation Zrotation
											End Site
											{
												OFFSET 0.882500 2.642609 0.325652
											}
										}
									}
								}
							}
							JOINT Right_Sleeve
							{
								OFFSET -6.592125 -0.646545 0.805568
								CHANNELS 3 Xrotation Yrotation Zrotation
								End Site
								{
									OFFSET 0.000179 20.275787 -0.000000
								}
							}
						}
					}
				}
				JOINT Bind_Right_JacketString
				{
					OFFSET -3.534800 11.969597 7.200700
					CHANNELS 3 Xrotation Yrotation Zrotation
					JOINT Bind_Right_JacketString1
					{
						OFFSET -0.319900 -6.102600 2.794100
						CHANNELS 3 Xrotation Yrotation Zrotation
						End Site
						{
							OFFSET 0.000000 6.719452 0.000000
						}
					}
				}
				JOINT Bind_Left_JacketString
				{
					OFFSET 2.904800 11.969597 7.200700
					CHANNELS 3 Xrotation Yrotation Zrotation
					JOINT Bind_Left_JacketString1
					{
						OFFSET 0.364800 -5.904503 3.186800
						CHANNELS 3 Xrotation Yrotation Zrotation
						End Site
						{
							OFFSET 0.000000 6.719513 0.000000
						}
					}
				}
				JOINT HairE
				{
					OFFSET 5.915200 17.612701 -11.592200
					CHANNELS 3 Xrotation Yrotation Zrotation
					JOINT HairE1
					{
						OFFSET 0.289200 -7.171898 -1.284500
						CHANNELS 3 Xrotation Yrotation Zrotation
						End Site
						{
							OFFSET 0.000000 7.291756 0.000000
						}
					}
				}
				JOINT HairF
				{
					OFFSET -0.864800 17.612701 -11.592200
					CHANNELS 3 Xrotation Yrotation Zrotation
					JOINT HairF1
					{
						OFFSET 0.000000 -14.087097 -2.127501
						CHANNELS 3 Xrotation Yrotation Zrotation
						End Site
						{
							OFFSET 0.000000 14.246841 0.000000
						}
					}
				}
				JOINT HairG
				{
					OFFSET -8.087700 17.612701 -11.592200
					CHANNELS 3 Xrotation Yrotation Zrotation
					JOINT HairG1
					{
						OFFSET -0.293600 -6.081398 -0.910100
						CHANNELS 3 Xrotation Yrotation Zrotation
						End Site
						{
							OFFSET 0.000000 6.156120 0.000000
						}
					}
				}
			}
		}
	}
	JOINT Pouch
	{
		OFFSET 0.000000 4.394501 10.847300
		CHANNELS 3 Xrotation Yrotation Zrotation
		End Site
		{
			OFFSET 0.000000 21.880577 0.000000
		}
	}
	JOINT Bag
	{
		OFFSET -13.229000 4.813004 -0.593300
		CHANNELS 3 Xrotation Yrotation Zrotation
		End Site
		{
			OFFSET 0.000000 21.880577 0.000000
		}
	}
	JOINT OccupyGuyFacialAnim_Joint
	{
		OFFSET 1.000000 -70.206398 -1.655000
		CHANNELS 3 Xrotation Yrotation Zrotation
		End Site
		{
			OFFSET 0.000000 21.880577 0.000000
		}
	}
}
MOTION
Frames: 5
Frame Time: 0.033333
2.278814 66.470848 -0.097758 -62.971475 -92.808645 -63.369710 -0.000000 -0.000000 -0.000000 -29.826193 35.534069 33.976137 28.713682 -8.792398 1.111484 -6.863914 6.061791 -15.741382 0.000000 -0.000003 -0.000000 0.000000 -0.000001 0.000001 -25.841483 -15.050937 -19.706074 13.823832 10.512809 -3.472375 2.598677 13.630883 18.147635 0.000000 0.000000 0.000000 0.000001 0.000000 -0.000000 5.383835 -2.323313 -8.066642 2.771441 -0.553950 -1.077813 2.777685 -0.510268 -1.087487 -12.273409 6.004531 4.761555 20.231311 76.958023 -25.708535 -0.000000 0.000001 -0.000000 -0.000000 0.000001 -0.000000 -0.000000 0.000001 -0.000000 -0.000000 0.000001 -0.000000 -0.000000 0.000001 -0.000000 -0.000000 0.000001 -0.000000 -0.000000 0.000001 -0.000000 -0.000000 0.000001 -0.000000 -0.000000 0.000001 -0.000000 5.516887 -2.188419 12.208350 -41.899365 5.599296 2.227375 0.045089 -12.980533 -0.289998 -49.394180 -3.550611 -0.088066 40.109944 -15.297175 -0.360469 5.639942 28.097747 11.338736 -0.000001 0.000003 -0.000001 6.882282 2.840034 -61.140500 8.247951 7.640023 -89.897898 0.000002 0.000000 -0.000002 -2.345530 4.688859 -62.655265 8.754188 9.897072 -87.051260 -0.000001 0.000001 0.000001 -9.042492 10.045578 -60.766192 8.524032 9.508890 -66.892919 -0.000000 0.000001 -0.000002 -17.946775 14.755017 -51.485925 8.868348 8.666989 -84.811989 0.000001 0.000000 -0.000002 0.000001 -0.000001 0.000000 -2.478561 1.878747 -16.638407 -51.925892 54.163779 47.616616 1.362547 130.520325 0.246832 -70.593345 -0.218324 -24.603890 0.277484 -1.521498 -1.570517 7.169055 -41.689651 -15.773494 -0.000001 -0.000001 0.000001 6.412821 -12.738401 14.389583 9.941731 -7.465136 101.743242 -0.000003 -0.000002 -0.000002 2.653194 -11.302334 44.730940 9.916104 -9.880657 94.351188 0.000003 0.000001 -0.000001 2.140159 -7.454445 61.765011 9.609232 -8.992507 89.388707 0.000001 -0.000002 -0.000000 -4.886654 -23.798143 68.396155 13.518291 -7.949266 112.864956 0.000003 0.000003 -0.000003 0.000000 0.000002 0.000000 -0.000000 0.000000 -0.000000 -0.000000 0.000000 -0.000001 -0.000000 0.000000 -0.000001 -0.000000 0.000000 -0.000001 -0.000000 0.000000 -0.000000 -0.000000 0.000000 -0.000000 -0.000000 0.000000 -0.000001 -0.000000 0.000000 -0.000001 -0.000000 0.000000 -0.000000 -0.000000 0.000000 -0.000000 -0.000000 -0.000000 -0.000000 -0.000000 -0.000000 -0.000000 -0.000000 -0.000000 -0.000000 
2.251205 66.462440 -0.081657 -66.376878 -92.670340 -66.726577 -0.000000 0.000000 0.000000 -29.827211 35.541149 33.950094 28.767439 -9.004022 1.093565 -6.901301 6.056803 -15.666521 -0.000000 -0.000002 0.000000 -0.000001 -0.000002 -0.000002 -25.861494 -15.036303 -19.864987 14.103448 10.383470 -3.481647 2.407417 13.602016 18.176125 -0.000000 0.000000 -0.000000 0.000002 -0.000001 -0.000001 5.339456 -2.316886 -8.044660 2.780081 -0.570464 -1.074416 2.786350 -0.526479 -1.084151 -12.140571 5.906374 4.718710 20.322591 76.859156 -25.850202 -0.000000 -0.000001 0.000000 -0.000000 -0.000001 0.000000 -0.000000 -0.000001 0.000000 -0.000000 -0.000001 -0.000000 0.000001 0.000000 -0.000000 -0.000000 -0.000001 -0.000000 0.000001 0.000000 -0.000000 -0.000000 -0.000001 0.000000 -0.000000 -0.000001 0.000000 5.637732 -2.348050 12.570372 -41.907333 5.908576 1.807485 0.275722 -12.845349 -0.202645 -49.341591 -3.751580 -0.074881 40.109944 -15.297175 -0.360471 5.639938 28.097747 11.338736 -0.000001 -0.000000 0.000001 6.882280 2.840035 -61.140500 8.247949 7.640022 -89.897898 0.000003 0.000002 -0.000002 -2.345528 4.688863 -62.655258 8.754184 9.897069 -87.051260 0.000002 0.000001 -0.000001 -9.042490 10.045577 -60.766192 8.524030 9.508889 -66.892919 -0.000001 -0.000003 0.000002 -17.946773 14.755017 -51.485928 8.868348 8.666990 -84.811989 -0.000001 -0.000001 0.000003 -0.000001 -0.000000 -0.000000 -2.485116 1.902049 -16.715501 -51.985301 54.065923 47.662361 1.508802 130.483415 0.173605 -70.650514 -0.284696 -24.678636 0.277489 -1.521499 -1.570516 7.169054 -41.689651 -15.773501 0.000002 0.000001 0.000001 6.412828 -12.738404 14.389581 9.941731 -7.465136 101.743236 -0.000001 -0.000000 0.000002 2.653196 -11.302335 44.730936 9.916104 -9.880652 94.351188 -0.000000 -0.000001 0.000001 2.140163 -7.454445 61.765018 9.609234 -8.992505 89.388701 0.000001 0.000000 0.000001 -4.886651 -23.798145 68.396148 13.518292 -7.949267 112.864962 0.000001 0.000001 0.000001 -0.000000 -0.000002 -0.000000 -0.000000 0.000000 0.000000 0.000000 0.000000 -0.000001 -0.000000 0.000000 0.000000 -0.000000 0.000000 0.000000 -0.000000 0.000000 0.000000 0.000000 0.000000 -0.000001 -0.000000 0.000000 0.000000 -0.000000 0.000000 0.000000 -0.000000 0.000000 0.000000 0.000000 0.000000 -0.000001 -0.000000 0.000000 0.000000 -0.000000 0.000000 0.000000 -0.000000 0.000000 0.000000 
2.226849 66.458328 -0.068002 -70.007492 -92.573570 -70.314106 0.000000 0.000000 -0.000000 -29.834382 35.549338 33.914679 28.786652 -9.194643 1.077339 -6.919883 6.050120 -15.600205 -0.000000 -0.000002 -0.000000 -0.000003 -0.000001 -0.000002 -25.869306 -15.024371 -19.996507 14.301887 10.258606 -3.490531 2.258118 13.571168 18.207331 0.000000 0.000000 0.000000 -0.000002 -0.000001 -0.000001 5.294182 -2.314886 -8.045189 2.803308 -0.585571 -1.071174 2.809596 -0.541148 -1.080989 -12.120177 5.942207 4.608945 19.587436 76.864217 -25.283181 0.000000 0.000000 -0.000000 0.000000 0.000000 -0.000000 0.000000 0.000000 0.000000 0.000000 0.000000 -0.000000 0.000000 -0.000001 -0.000000 0.000000 0.000000 -0.000000 0.000000 -0.000001 -0.000000 0.000000 0.000000 -0.000000 0.000000 0.000000 -0.000000 5.742422 -2.441734 12.833262 -41.960683 6.078525 1.478424 0.431932 -12.583606 -0.112028 -49.306808 -3.839339 -0.132870 40.109941 -15.297177 -0.360471 5.639937 28.097745 11.338736 0.000002 -0.000000 -0.000000 6.882280 2.840032 -61.140500 8.247952 7.640023 -89.897898 0.000005 0.000001 0.000002 -2.345526 4.688860 -62.655265 8.754189 9.897071 -87.051266 -0.000001 0.000001 -0.000003 -9.042489 10.045578 -60.766192 8.524033 9.508888 -66.892926 0.000001 0.000000 -0.000004 -17.946769 14.755015 -51.485932 8.868347 8.666989 -84.811989 0.000001 -0.000001 0.000003 0.000002 0.000002 0.000001 -2.307658 2.005791 -17.544604 -52.449692 53.374264 48.207287 1.347467 130.610907 0.327163 -70.692615 -0.329254 -24.866296 0.277487 -1.521498 -1.570517 7.169055 -41.689654 -15.773501 -0.000002 -0.000002 0.000000 6.412824 -12.738404 14.389581 9.941728 -7.465136 101.743236 0.000001 -0.000001 0.000002 2.653198 -11.302337 44.730943 9.916104 -9.880658 94.351188 0.000000 -0.000001 0.000001 2.140159 -7.454446 61.765011 9.609234 -8.992502 89.388701 -0.000001 -0.000003 0.000000 -4.886653 -23.798148 68.396155 13.518296 -7.949267 112.864956 -0.000003 0.000001 -0.000001 0.000000 -0.000001 -0.000000 -0.000000 0.000000 -0.000000 -0.000000 0.000000 -0.000000 -0.000000 0.000000 -0.000000 -0.000000 0.000000 -0.000000 -0.000000 0.000000 -0.000000 -0.000000 0.000000 -0.000000 -0.000000 0.000000 -0.000000 -0.000000 0.000000 -0.000000 -0.000000 0.000000 -0.000000 -0.000000 0.000000 -0.000000 0.000000 0.000000 -0.000000 0.000000 0.000000 -0.000000 0.000000 0.000000 -0.000000 
2.205061 66.455681 -0.059222 -73.471997 -92.519898 -73.765749 -0.000000 -0.000000 -0.000000 -29.876146 35.536067 33.910093 28.805431 -9.347635 1.064481 -6.932834 6.044837 -15.549074 0.000000 0.000000 0.000000 0.000002 -0.000002 0.000000 -25.863983 -15.017914 -20.073132 14.432494 10.136858 -3.499199 2.146750 13.546422 18.235143 0.000000 -0.000000 -0.000000 0.000000 0.000002 -0.000000 5.241937 -2.315279 -8.051863 2.813178 -0.602522 -1.067682 2.819332 -0.558625 -1.083404 -12.047866 5.921162 4.636225 19.254093 76.890937 -25.180191 0.000001 0.000000 -0.000000 0.000001 0.000000 -0.000000 0.000001 0.000000 -0.000000 0.000001 0.000000 0.000000 0.000001 0.000000 0.000000 0.000001 0.000000 0.000000 0.000001 0.000000 0.000000 0.000001 0.000000 -0.000000 0.000001 0.000000 -0.000000 5.779111 -2.417217 12.875930 -41.998649 5.887533 1.289388 0.546249 -12.161813 -0.030479 -49.282752 -3.901542 -0.237805 40.109948 -15.297180 -0.360472 5.639940 28.097745 11.338736 -0.000001 0.000001 0.000001 6.882280 2.840032 -61.140500 8.247949 7.640025 -89.897898 0.000004 0.000003 -0.000003 -2.345527 4.688860 -62.655265 8.754186 9.897073 -87.051260 -0.000000 0.000002 -0.000004 -9.042490 10.045578 -60.766199 8.524033 9.508888 -66.892919 0.000000 -0.000000 -0.000001 -17.946768 14.755017 -51.485932 8.868346 8.666988 -84.811989 -0.000000 -0.000000 -0.000001 -0.000001 -0.000001 -0.000000 -2.448605 1.973185 -17.056794 -52.194451 53.683351 47.896398 1.560414 130.634703 0.200505 -70.760698 -0.438237 -24.955512 0.277490 -1.521499 -1.570515 7.169054 -41.689648 -15.773497 0.000000 -0.000001 0.000000 6.412829 -12.738403 14.389580 9.941732 -7.465137 101.743236 -0.000002 0.000001 0.000000 2.653201 -11.302335 44.730940 9.916110 -9.880661 94.351181 -0.000001 0.000001 0.000001 2.140163 -7.454445 61.765018 9.609238 -8.992504 89.388701 0.000000 -0.000001 0.000002 -4.886649 -23.798145 68.396155 13.518292 -7.949268 112.864956 -0.000001 0.000003 -0.000002 -0.000000 0.000001 0.000000 0.000000 -0.000000 -0.000000 0.000000 -0.000000 -0.000001 0.000000 -0.000000 -0.000000 0.000000 -0.000000 -0.000000 0.000000 -0.000000 -0.000000 0.000000 -0.000000 -0.000000 0.000000 -0.000000 -0.000000 0.000000 -0.000000 -0.000000 0.000000 -0.000000 -0.000000 0.000000 -0.000000 -0.000000 -0.000000 -0.000000 -0.000000 -0.000000 -0.000000 -0.000000 -0.000000 -0.000000 -0.000000 
2.185856 66.454269 -0.055819 -76.580723 -92.506825 -76.892829 -0.000000 -0.000000 0.000000 -29.952517 35.500762 33.938479 28.822524 -9.467347 1.054491 -6.940341 6.041044 -15.513820 0.000000 0.000000 -0.000000 0.000001 -0.000002 0.000001 -25.849793 -15.015011 -20.092953 14.504530 10.019777 -3.507490 2.068316 13.527850 18.258376 0.000000 0.000000 -0.000000 -0.000000 0.000000 -0.000001 5.187220 -2.314820 -8.060010 2.819167 -0.618500 -1.064419 2.825193 -0.575866 -1.091315 -11.998864 5.810583 4.758799 19.632103 76.859825 -25.677896 -0.000000 0.000000 0.000000 -0.000000 0.000000 0.000000 -0.000000 0.000000 0.000000 -0.000000 0.000000 0.000001 0.000001 0.000001 -0.000000 -0.000000 0.000000 0.000001 0.000001 0.000001 -0.000000 -0.000000 0.000000 0.000000 -0.000000 0.000000 0.000000 5.780781 -2.590333 12.953058 -41.992696 5.945234 1.287581 0.567005 -11.901554 0.021872 -49.259632 -4.047350 -0.201888 40.109938 -15.297173 -0.360470 5.639937 28.097745 11.338737 0.000001 -0.000000 -0.000000 6.882280 2.840034 -61.140500 8.247952 7.640022 -89.897898 0.000002 -0.000001 0.000001 -2.345530 4.688860 -62.655265 8.754185 9.897072 -87.051260 0.000002 0.000001 -0.000003 -9.042492 10.045576 -60.766199 8.524036 9.508889 -66.892919 0.000000 -0.000000 -0.000001 -17.946773 14.755013 -51.485935 8.868348 8.666989 -84.811989 0.000001 0.000000 -0.000002 0.000002 0.000001 0.000000 -2.497935 1.979688 -16.948503 -52.127078 53.661914 47.801659 1.675674 130.742293 0.145032 -70.811310 -0.491801 -25.070008 0.277490 -1.521499 -1.570517 7.169054 -41.689648 -15.773499 -0.000003 -0.000003 -0.000001 6.412826 -12.738402 14.389578 9.941730 -7.465141 101.743242 0.000000 -0.000002 -0.000000 2.653198 -11.302335 44.730940 9.916105 -9.880659 94.351188 0.000002 -0.000002 0.000004 2.140159 -7.454445 61.765018 9.609232 -8.992503 89.388707 0.000003 -0.000000 -0.000001 -4.886653 -23.798145 68.396162 13.518289 -7.949266 112.864949 0.000002 -0.000001 -0.000001 -0.000000 0.000001 0.000000 0.000001 0.000000 -0.000001 -0.000000 0.000000 -0.000000 0.000001 0.000000 -0.000001 0.000001 0.000000 -0.000001 0.000001 0.000000 -0.000001 -0.000000 0.000000 0.000000 0.000001 0.000000 -0.000001 0.000001 0.000000 -0.000001 0.000001 0.000000 -0.000001 -0.000000 0.000000 0.000000 -0.000000 -0.000000 0.000000 -0.000000 -0.000000 0.000000 -0.000000 -0.000000 0.000000 
